<svg width="24" height="25" viewBox="0 0 24 25" fill="none" xmlns="http://www.w3.org/2000/svg">
<path d="M23.3538 9.96997L13.3538 0.53417C13.3489 0.529904 13.3443 0.52531 13.34 0.520418C12.9718 0.185556 12.492 0 11.9944 0C11.4967 0 11.0169 0.185556 10.6488 0.520418L10.635 0.53417L0.64625 9.96997C0.442497 10.1573 0.279855 10.385 0.168614 10.6385C0.057374 10.892 -4.20536e-05 11.1658 2.31098e-08 11.4426V22.9998C2.31098e-08 23.5303 0.210714 24.0391 0.585786 24.4142C0.960859 24.7893 1.46957 25 2 25H8C8.53043 25 9.03914 24.7893 9.41421 24.4142C9.78929 24.0391 10 23.5303 10 22.9998V16.9993H14V22.9998C14 23.5303 14.2107 24.0391 14.5858 24.4142C14.9609 24.7893 15.4696 25 16 25H22C22.5304 25 23.0391 24.7893 23.4142 24.4142C23.7893 24.0391 24 23.5303 24 22.9998V11.4426C24 11.1658 23.9426 10.892 23.8314 10.6385C23.7201 10.385 23.5575 10.1573 23.3538 9.96997ZM22 22.9998H16V16.9993C16 16.4688 15.7893 15.9601 15.4142 15.585C15.0391 15.2099 14.5304 14.9992 14 14.9992H10C9.46957 14.9992 8.96086 15.2099 8.58579 15.585C8.21071 15.9601 8 16.4688 8 16.9993V22.9998H2V11.4426L2.01375 11.4301L12 1.99804L21.9875 11.4276L22.0012 11.4401L22 22.9998Z" fill="#000"/>
</svg>
