<svg width="23" height="23" viewBox="0 0 23 23" fill="none" xmlns="http://www.w3.org/2000/svg">
<path fill-rule="evenodd" clip-rule="evenodd" d="M15.6673 8.37565C15.6673 9.48072 15.2283 10.5405 14.4469 11.3219C13.6655 12.1033 12.6057 12.5423 11.5007 12.5423C10.3956 12.5423 9.33577 12.1033 8.55437 11.3219C7.77297 10.5405 7.33398 9.48072 7.33398 8.37565C7.33398 7.27058 7.77297 6.21077 8.55437 5.42937C9.33577 4.64797 10.3956 4.20898 11.5007 4.20898C12.6057 4.20898 13.6655 4.64797 14.4469 5.42937C15.2283 6.21077 15.6673 7.27058 15.6673 8.37565ZM13.584 8.37565C13.584 8.92819 13.3645 9.45809 12.9738 9.84879C12.5831 10.2395 12.0532 10.459 11.5007 10.459C10.9481 10.459 10.4182 10.2395 10.0275 9.84879C9.63681 9.45809 9.41732 8.92819 9.41732 8.37565C9.41732 7.82312 9.63681 7.29321 10.0275 6.90251C10.4182 6.51181 10.9481 6.29232 11.5007 6.29232C12.0532 6.29232 12.5831 6.51181 12.9738 6.90251C13.3645 7.29321 13.584 7.82312 13.584 8.37565Z" fill="#000"/>
<path fill-rule="evenodd" clip-rule="evenodd" d="M11.5003 0.0419922C5.1722 0.0419922 0.0419922 5.1722 0.0419922 11.5003C0.0419922 17.8285 5.1722 22.9587 11.5003 22.9587C17.8285 22.9587 22.9587 17.8285 22.9587 11.5003C22.9587 5.1722 17.8285 0.0419922 11.5003 0.0419922ZM2.12533 11.5003C2.12533 13.6774 2.86803 15.6816 4.11283 17.2732C4.98702 16.1252 6.11481 15.1949 7.40807 14.5548C8.70133 13.9148 10.1251 13.5824 11.568 13.5837C12.9923 13.5823 14.3982 13.9061 15.6784 14.5303C16.9586 15.1545 18.0795 16.0627 18.9555 17.1857C19.8581 16.002 20.4658 14.6203 20.7283 13.1551C20.9909 11.6899 20.9008 10.1832 20.4654 8.75968C20.0301 7.33619 19.262 6.03683 18.2248 4.96911C17.1876 3.9014 15.911 3.09601 14.5007 2.61961C13.0904 2.1432 11.587 2.00946 10.1148 2.22946C8.64254 2.44947 7.24386 3.01688 6.03446 3.88476C4.82506 4.75263 3.83971 5.89602 3.15994 7.22032C2.48017 8.54462 2.12551 10.0118 2.12533 11.5003ZM11.5003 20.8753C9.34819 20.8786 7.26102 20.1382 5.59199 18.7795C6.26379 17.8178 7.15797 17.0325 8.19844 16.4906C9.23892 15.9487 10.3949 15.6662 11.568 15.667C12.7265 15.6661 13.8685 15.9415 14.8992 16.4706C15.9299 16.9996 16.8195 17.7668 17.4941 18.7087C15.8121 20.1115 13.6905 20.8784 11.5003 20.8753Z" fill="#000"/>
</svg>
