<?xml version="1.0" standalone="no"?>
<!DOCTYPE svg PUBLIC "-//W3C//DTD SVG 20010904//EN"
 "http://www.w3.org/TR/2001/REC-SVG-20010904/DTD/svg10.dtd">
<svg version="1.0" xmlns="http://www.w3.org/2000/svg"
 width="512.000000pt" height="512.000000pt" viewBox="0 0 512.000000 512.000000"
 preserveAspectRatio="xMidYMid meet">

<g transform="translate(0.000000,512.000000) scale(0.100000,-0.100000)"
fill="#000000" stroke="none">
<path d="M3522 5110 c-174 -22 -379 -91 -527 -177 -149 -86 -309 -219 -321
-267 -10 -40 23 -80 68 -84 30 -3 43 5 105 61 349 312 846 410 1283 252 365
-132 654 -429 774 -797 124 -378 67 -783 -157 -1118 -63 -95 -440 -478 -557
-566 -211 -160 -473 -245 -755 -245 -164 0 -272 18 -471 82 -216 69 -336 139
-469 274 -111 112 -172 219 -234 409 -62 189 -78 258 -91 393 -32 338 86 697
312 948 74 82 83 101 69 138 -12 30 -39 47 -77 47 -52 0 -220 -211 -307 -385
-179 -358 -199 -738 -61 -1149 19 -55 34 -106 34 -114 0 -8 -55 -132 -122
-276 l-122 -261 -183 -186 c-160 -162 -183 -190 -183 -217 0 -42 31 -72 72
-72 29 0 52 19 190 157 l158 158 82 -83 83 -82 -388 -387 -387 -388 -82 82
-82 83 132 133 c72 74 132 141 132 150 0 54 -55 97 -101 78 -13 -5 -80 -66
-149 -136 l-125 -126 -42 6 c-98 14 -92 19 -531 -418 -221 -221 -416 -422
-432 -447 -181 -284 83 -650 410 -566 35 9 85 30 110 46 25 16 226 210 446
432 375 376 402 406 413 450 6 27 9 65 6 85 l-6 38 413 413 413 412 265 125
c146 69 271 125 279 125 8 0 69 -18 135 -39 222 -72 397 -95 605 -80 257 19
504 110 725 266 96 68 478 446 553 547 327 441 383 996 149 1489 -63 133 -152
254 -275 378 -211 210 -428 328 -716 389 -116 24 -350 34 -463 20z m-1229
-2579 c75 -100 172 -193 265 -254 34 -23 62 -44 62 -48 0 -6 -363 -179 -377
-179 -11 0 -193 183 -193 193 0 9 171 377 175 377 1 0 32 -40 68 -89z m-1141
-1379 c81 -81 148 -154 148 -161 0 -7 -30 -44 -67 -82 l-67 -70 -163 163 -164
163 70 68 c38 37 75 67 82 67 7 0 80 -67 161 -148z m-102 -417 c0 -6 -32 -42
-70 -80 l-70 -70 -162 163 -163 162 75 75 75 75 157 -157 c87 -87 158 -162
158 -168z m-405 -95 l160 -160 -135 -136 c-74 -74 -154 -147 -177 -160 -187
-112 -412 88 -322 286 13 29 69 94 162 187 77 79 144 143 147 143 3 0 77 -72
165 -160z"/>
<path d="M3585 4730 c-165 -18 -338 -82 -477 -179 -110 -75 -492 -466 -552
-563 -172 -280 -205 -629 -87 -933 94 -244 313 -470 553 -571 155 -66 223 -79
413 -79 155 0 179 3 269 28 124 34 247 94 345 168 111 82 458 438 516 527 301
467 193 1076 -249 1404 -145 108 -321 176 -509 197 -104 12 -117 12 -222 1z
m183 -148 c21 -7 17 -13 -55 -85 l-78 -77 -70 70 c-38 38 -67 72 -64 75 16 15
224 29 267 17z m319 -87 c49 -24 111 -61 137 -81 l48 -37 -148 -148 -149 -149
-117 117 -118 118 112 112 c62 62 120 113 129 113 9 0 57 -20 106 -45z m-567
-180 c0 -13 -282 -295 -295 -295 -6 0 -61 51 -123 113 l-113 113 78 75 c82 79
135 119 218 163 l50 26 92 -92 c51 -51 93 -97 93 -103z m970 -220 c28 -55 50
-107 50 -115 0 -8 -51 -65 -112 -127 l-113 -113 -117 117 -118 118 147 148
148 148 33 -38 c17 -21 55 -83 82 -138z m-630 -120 c0 -13 -282 -295 -295
-295 -13 0 -225 212 -225 225 0 5 66 76 147 157 l148 148 112 -112 c62 -62
113 -117 113 -123z m-890 -220 l-150 -150 -97 97 -96 96 13 32 c26 62 94 156
168 233 l76 78 118 -118 118 -118 -150 -150z m1122 -2 c60 -59 108 -112 108
-118 0 -13 -282 -295 -295 -295 -13 0 -225 212 -225 225 0 13 282 295 295 295
5 0 58 -48 117 -107z m-782 -338 l-150 -150 -117 118 -118 117 150 150 150
150 117 -117 118 -118 -150 -150z m1271 203 c-6 -55 -14 -105 -17 -110 -4 -6
-37 21 -75 58 l-69 69 77 78 78 78 9 -37 c5 -22 4 -75 -3 -136z m-1949 -200
l-82 -83 0 102 c0 56 5 125 11 154 l11 52 72 -72 71 -71 -83 -82z m1785 10
l92 -91 -26 -51 c-39 -78 -80 -133 -162 -219 l-75 -78 -113 113 c-62 62 -113
117 -113 123 0 13 282 295 295 295 5 0 51 -41 102 -92z m-767 -353 l-150 -150
-117 118 -118 117 150 150 150 150 117 -117 118 -118 -150 -150z m-710 200
l115 -115 -149 -149 -149 -150 -34 42 c-38 48 -96 156 -119 218 l-15 43 113
113 c62 62 115 113 118 113 3 0 57 -52 120 -115z m1147 -443 c-66 -69 -161
-141 -231 -178 l-56 -29 -97 97 -98 98 150 150 150 150 117 -117 118 -118 -53
-53z m-807 103 l115 -115 -115 -115 c-90 -90 -119 -114 -135 -109 -46 13 -184
84 -232 120 l-52 39 147 148 c81 81 149 147 152 147 3 0 57 -52 120 -115z
m294 -294 c82 -82 84 -80 -109 -88 l-130 -5 80 81 c44 45 82 81 85 81 3 0 36
-31 74 -69z"/>
<path d="M3706 1924 c-121 -38 -200 -120 -247 -254 -12 -36 -88 -243 -168
-461 -119 -321 -154 -404 -184 -441 -218 -267 -66 -663 278 -720 116 -19 260
22 345 98 30 27 120 64 486 199 247 91 467 173 488 183 57 24 133 103 164 169
23 50 27 71 27 148 0 76 -4 99 -26 146 -15 31 -43 74 -63 96 -36 41 -140 103
-171 103 -13 0 -16 5 -11 23 15 49 18 147 6 196 -39 162 -209 283 -375 268
-33 -3 -68 -9 -77 -12 -13 -5 -21 0 -29 21 -39 106 -96 171 -183 214 -78 39
-184 49 -260 24z m200 -160 c58 -30 104 -103 104 -165 l0 -49 -291 -365 c-160
-201 -294 -365 -298 -365 -4 0 -11 4 -17 10 -5 5 -26 15 -45 22 l-36 13 153
414 c163 441 170 455 249 493 50 23 125 20 181 -8z m452 -250 c113 -47 164
-180 109 -284 -18 -34 -98 -103 -407 -351 l-385 -308 -67 67 c-38 37 -68 70
-68 74 0 4 135 177 300 385 263 330 307 381 351 406 59 31 111 35 167 11z
m283 -487 c120 -64 145 -227 49 -326 -21 -21 -55 -44 -76 -51 -33 -10 -721
-263 -776 -285 -12 -5 -18 -2 -18 7 0 7 -9 31 -20 53 -11 21 -19 40 -17 41 1
1 166 133 366 293 347 277 366 291 406 291 25 0 60 -10 86 -23z m-1143 -491
c170 -170 173 -174 170 -212 -2 -32 -10 -44 -46 -71 -157 -119 -376 -53 -452
137 -48 118 29 320 121 320 30 0 52 -19 207 -174z"/>
</g>
</svg>
