<?xml version="1.0" standalone="no"?>
<!DOCTYPE svg PUBLIC "-//W3C//DTD SVG 20010904//EN"
 "http://www.w3.org/TR/2001/REC-SVG-20010904/DTD/svg10.dtd">
<svg version="1.0" xmlns="http://www.w3.org/2000/svg"
 width="512.000000pt" height="512.000000pt" viewBox="0 0 512.000000 512.000000"
 preserveAspectRatio="xMidYMid meet">

<g transform="translate(0.000000,512.000000) scale(0.100000,-0.100000)"
fill="#000000" stroke="none">
<path d="M2315 5109 c-597 -61 -1144 -320 -1564 -740 -538 -537 -810 -1287
-740 -2039 73 -786 490 -1480 1154 -1916 835 -549 1953 -550 2786 -3 667 438
1085 1131 1158 1919 70 752 -202 1502 -740 2039 -395 396 -889 643 -1454 727
-122 18 -477 26 -600 13z m580 -316 c473 -65 968 -322 1300 -675 76 -81 227
-269 221 -275 -2 -2 -43 12 -92 30 -544 208 -1251 257 -1832 127 l-83 -18 6
66 c17 178 61 371 116 509 31 78 104 229 122 251 11 14 54 11 242 -15z m-614
-54 c-133 -294 -195 -692 -160 -1030 33 -331 158 -684 334 -949 41 -62 54 -89
47 -100 -18 -31 -200 -183 -292 -245 -95 -64 -294 -165 -402 -204 l-56 -20
-60 92 c-275 425 -427 876 -473 1397 -14 156 -6 451 15 610 16 120 12 114 153
200 179 111 419 211 634 264 89 22 279 56 287 51 1 -1 -11 -31 -27 -66z
m-1365 -867 c1 -243 16 -399 60 -617 75 -372 214 -728 410 -1050 25 -42 44
-78 41 -81 -2 -3 -67 -8 -143 -11 -300 -12 -576 45 -850 176 l-121 58 -6 54
c-10 79 -8 239 3 364 40 435 219 876 491 1209 35 43 73 89 83 102 11 13 22 24
25 24 4 0 6 -102 7 -228z m2574 -113 c330 -30 677 -128 997 -279 180 -86 176
-82 218 -211 42 -131 67 -235 91 -384 30 -183 23 -602 -12 -718 -4 -14 -20 -2
-76 58 -263 282 -655 506 -1038 594 -265 62 -598 70 -855 22 l-45 -8 -33 46
c-127 176 -236 425 -287 656 -32 147 -35 140 68 164 311 72 625 91 972 60z
m-130 -1194 c47 -3 129 -15 184 -26 102 -21 286 -76 286 -86 0 -12 -103 -175
-173 -273 -363 -510 -889 -903 -1479 -1105 -332 -114 -704 -173 -1033 -163
l-135 4 -46 44 c-150 146 -329 398 -434 614 -64 129 -160 389 -149 401 3 2 32
-6 64 -20 107 -43 287 -93 420 -116 109 -19 165 -23 345 -23 180 0 236 4 345
23 291 51 571 161 807 317 126 83 197 142 333 274 l110 107 80 13 c98 16 273
28 340 24 28 -2 88 -6 135 -9z m806 -276 c169 -107 366 -295 484 -461 l33 -48
-28 -67 c-121 -292 -324 -588 -542 -793 -342 -321 -751 -519 -1228 -596 -153
-25 -496 -25 -650 -1 -277 44 -571 145 -775 264 l-45 27 156 17 c632 71 1212
313 1714 715 141 114 376 348 488 489 94 117 217 294 287 413 23 39 45 72 49
72 4 0 29 -14 57 -31z"/>
</g>
</svg>
