<svg width="22" height="22" viewBox="0 0 22 22" fill="none" xmlns="http://www.w3.org/2000/svg">
<path d="M14.2503 19.667C14.5376 19.667 14.8132 19.5529 15.0164 19.3497C15.2195 19.1465 15.3337 18.871 15.3337 18.5837V2.33366H6.66699C6.37967 2.33366 6.10412 2.4478 5.90096 2.65096C5.6978 2.85412 5.58366 3.12967 5.58366 3.41699V15.3337H3.41699V3.41699C3.41699 2.55504 3.7594 1.72839 4.3689 1.1189C4.97839 0.509402 5.80504 0.166992 6.66699 0.166992H18.5837C19.4456 0.166992 20.2723 0.509402 20.8818 1.1189C21.4912 1.72839 21.8337 2.55504 21.8337 3.41699V4.50033H19.667V3.41699C19.667 3.12967 19.5529 2.85412 19.3497 2.65096C19.1465 2.4478 18.871 2.33366 18.5837 2.33366C18.2963 2.33366 18.0208 2.4478 17.8176 2.65096C17.6145 2.85412 17.5003 3.12967 17.5003 3.41699V18.5837C17.5003 19.4456 17.1579 20.2723 16.5484 20.8818C15.9389 21.4912 15.1123 21.8337 14.2503 21.8337H3.41699C2.55504 21.8337 1.72839 21.4912 1.1189 20.8818C0.509402 20.2723 0.166992 19.4456 0.166992 18.5837V17.5003H12.0837C12.0837 18.075 12.3119 18.6261 12.7183 19.0324C13.1246 19.4387 13.6757 19.667 14.2503 19.667Z" fill="#000"/>
</svg>
