<svg width="24" height="22" viewBox="0 0 24 22" fill="none" xmlns="http://www.w3.org/2000/svg">
<path d="M23.2308 19.0204L18.7999 14.7368C18.5999 14.5435 18.3288 14.4361 18.0443 14.4361H17.3199C18.5465 12.9194 19.2754 11.0118 19.2754 8.93663C19.2754 4 15.1378 0 10.0313 0C4.92476 0 0.787109 4 0.787109 8.93663C0.787109 13.8733 4.92476 17.8733 10.0313 17.8733C12.1779 17.8733 14.1511 17.1686 15.72 15.9828V16.6831C15.72 16.9581 15.8311 17.2202 16.0311 17.4135L20.462 21.6971C20.8798 22.101 21.5553 22.101 21.9687 21.6971L23.2264 20.4812C23.6442 20.0773 23.6442 19.4243 23.2308 19.0204ZM10.0313 14.4361C6.88914 14.4361 4.34255 11.9785 4.34255 8.93663C4.34255 5.89903 6.88469 3.43716 10.0313 3.43716C13.1734 3.43716 15.72 5.89474 15.72 8.93663C15.72 11.9742 13.1778 14.4361 10.0313 14.4361Z" fill="#000"/>
</svg>
